<mxfile host="drawio-plugin" modified="2022-09-13T07:51:43.239Z" agent="5.0 (Windows NT 6.1; Win64; x64) AppleWebKit/537.36 (KHTML, like Gecko) Chrome/98.0.4758.102 Safari/537.36" etag="Yma3DKijdgn7xtejYc7I" version="15.5.4" type="embed"><diagram id="23iRSUPoRavnBvh4doch" name="Page-1"><mxGraphModel dx="898" dy="464" grid="1" gridSize="10" guides="1" tooltips="1" connect="1" arrows="1" fold="1" page="1" pageScale="1" pageWidth="827" pageHeight="1169" math="0" shadow="0"><root><mxCell id="0"/><mxCell id="1" parent="0"/><mxCell id="2" value="AbsHandler" style="swimlane;fontStyle=3;align=center;verticalAlign=top;childLayout=stackLayout;horizontal=1;startSize=26;horizontalStack=0;resizeParent=1;resizeParentMax=0;resizeLast=0;collapsible=1;marginBottom=0;" parent="1" vertex="1"><mxGeometry x="345" y="190" width="220" height="200" as="geometry"/></mxCell><mxCell id="3" value="+ FIRST: int&#10;+ SECOND: int&#10;+ THIRD: int&#10;-  nextHandler: AbsHandler&#10;# step: int" style="text;strokeColor=none;fillColor=none;align=left;verticalAlign=top;spacingLeft=4;spacingRight=4;overflow=hidden;rotatable=0;points=[[0,0.5],[1,0.5]];portConstraint=eastwest;fontStyle=0" parent="2" vertex="1"><mxGeometry y="26" width="220" height="94" as="geometry"/></mxCell><mxCell id="4" value="" style="line;strokeWidth=1;fillColor=none;align=left;verticalAlign=middle;spacingTop=-1;spacingLeft=3;spacingRight=3;rotatable=0;labelPosition=right;points=[];portConstraint=eastwest;" parent="2" vertex="1"><mxGeometry y="120" width="220" height="8" as="geometry"/></mxCell><mxCell id="5" value="+ setNextHandler(AbsHandler): void&#10;+ doHandle(int): void&#10;# sendMessage(int): void" style="text;strokeColor=none;fillColor=none;align=left;verticalAlign=top;spacingLeft=4;spacingRight=4;overflow=hidden;rotatable=0;points=[[0,0.5],[1,0.5]];portConstraint=eastwest;" parent="2" vertex="1"><mxGeometry y="128" width="220" height="72" as="geometry"/></mxCell><mxCell id="6" value="BFirstGuaHao" style="swimlane;fontStyle=1;align=center;verticalAlign=top;childLayout=stackLayout;horizontal=1;startSize=26;horizontalStack=0;resizeParent=1;resizeParentMax=0;resizeLast=0;collapsible=1;marginBottom=0;" parent="1" vertex="1"><mxGeometry x="90" y="495" width="220" height="130" as="geometry"/></mxCell><mxCell id="7" value="" style="line;strokeWidth=1;fillColor=none;align=left;verticalAlign=middle;spacingTop=-1;spacingLeft=3;spacingRight=3;rotatable=0;labelPosition=right;points=[];portConstraint=eastwest;" parent="6" vertex="1"><mxGeometry y="26" width="220" height="8" as="geometry"/></mxCell><mxCell id="8" value="+ BFirstGuaHao()&#10;+ sendMessage(int): void&#10;+ setNextHandler(AbsHandler): void&#10;+ doHandle(int): void&#10;# abstract sendMessage(int): void" style="text;strokeColor=none;fillColor=none;align=left;verticalAlign=top;spacingLeft=4;spacingRight=4;overflow=hidden;rotatable=0;points=[[0,0.5],[1,0.5]];portConstraint=eastwest;" parent="6" vertex="1"><mxGeometry y="34" width="220" height="96" as="geometry"/></mxCell><mxCell id="9" value="CSecondJiaoFei" style="swimlane;fontStyle=1;align=center;verticalAlign=top;childLayout=stackLayout;horizontal=1;startSize=26;horizontalStack=0;resizeParent=1;resizeParentMax=0;resizeLast=0;collapsible=1;marginBottom=0;" parent="1" vertex="1"><mxGeometry x="350" y="495" width="210" height="130" as="geometry"><mxRectangle x="350" y="495" width="130" height="26" as="alternateBounds"/></mxGeometry></mxCell><mxCell id="10" value="" style="line;strokeWidth=1;fillColor=none;align=left;verticalAlign=middle;spacingTop=-1;spacingLeft=3;spacingRight=3;rotatable=0;labelPosition=right;points=[];portConstraint=eastwest;" parent="9" vertex="1"><mxGeometry y="26" width="210" height="8" as="geometry"/></mxCell><mxCell id="11" value="+ CSecondJiaoFei()&#10;+ sendMessage(int): void&#10;+ setNextHandler(AbsHandler): void&#10;+ doHandle(int): void&#10;# abstract sendMessage(int): void" style="text;strokeColor=none;fillColor=none;align=left;verticalAlign=top;spacingLeft=4;spacingRight=4;overflow=hidden;rotatable=0;points=[[0,0.5],[1,0.5]];portConstraint=eastwest;" parent="9" vertex="1"><mxGeometry y="34" width="210" height="96" as="geometry"/></mxCell><mxCell id="12" value="DThirdKanBing" style="swimlane;fontStyle=1;align=center;verticalAlign=top;childLayout=stackLayout;horizontal=1;startSize=26;horizontalStack=0;resizeParent=1;resizeParentMax=0;resizeLast=0;collapsible=1;marginBottom=0;" parent="1" vertex="1"><mxGeometry x="590" y="495" width="220" height="130" as="geometry"/></mxCell><mxCell id="13" value="" style="line;strokeWidth=1;fillColor=none;align=left;verticalAlign=middle;spacingTop=-1;spacingLeft=3;spacingRight=3;rotatable=0;labelPosition=right;points=[];portConstraint=eastwest;" parent="12" vertex="1"><mxGeometry y="26" width="220" height="8" as="geometry"/></mxCell><mxCell id="14" value="+ DThirdKanBing()&#10;+ sendMessage(int): void&#10;+ setNextHandler(AbsHandler): void&#10;+ doHandle(int): void&#10;# abstract sendMessage(int): void" style="text;strokeColor=none;fillColor=none;align=left;verticalAlign=top;spacingLeft=4;spacingRight=4;overflow=hidden;rotatable=0;points=[[0,0.5],[1,0.5]];portConstraint=eastwest;" parent="12" vertex="1"><mxGeometry y="34" width="220" height="96" as="geometry"/></mxCell><mxCell id="15" value="MainAction" style="swimlane;fontStyle=1;align=center;verticalAlign=top;childLayout=stackLayout;horizontal=1;startSize=26;horizontalStack=0;resizeParent=1;resizeParentMax=0;resizeLast=0;collapsible=1;marginBottom=0;" parent="1" vertex="1"><mxGeometry x="30" y="208" width="210" height="140" as="geometry"/></mxCell><mxCell id="16" value="" style="line;strokeWidth=1;fillColor=none;align=left;verticalAlign=middle;spacingTop=-1;spacingLeft=3;spacingRight=3;rotatable=0;labelPosition=right;points=[];portConstraint=eastwest;" parent="15" vertex="1"><mxGeometry y="26" width="210" height="8" as="geometry"/></mxCell><mxCell id="17" value="+ MainAction()&#10;+ sendMessage(int): void&#10;+ main(String[]): void&#10;+ setNextHandler(AbsHandler): void&#10;+ doHandle(int): void&#10;# sendMessage(int): void" style="text;strokeColor=none;fillColor=none;align=left;verticalAlign=top;spacingLeft=4;spacingRight=4;overflow=hidden;rotatable=0;points=[[0,0.5],[1,0.5]];portConstraint=eastwest;" parent="15" vertex="1"><mxGeometry y="34" width="210" height="106" as="geometry"/></mxCell><mxCell id="18" value="Extends" style="endArrow=block;endSize=16;endFill=0;html=1;rounded=0;" parent="1" source="15" target="3" edge="1"><mxGeometry width="160" relative="1" as="geometry"><mxPoint x="180" y="290" as="sourcePoint"/><mxPoint x="340" y="290" as="targetPoint"/></mxGeometry></mxCell><mxCell id="19" value="Extends" style="endArrow=block;endSize=16;endFill=0;html=1;rounded=0;" parent="1" source="6" target="2" edge="1"><mxGeometry width="160" relative="1" as="geometry"><mxPoint x="260" y="460" as="sourcePoint"/><mxPoint x="420" y="460" as="targetPoint"/></mxGeometry></mxCell><mxCell id="20" value="Extends" style="endArrow=block;endSize=16;endFill=0;html=1;rounded=0;exitX=0.5;exitY=0;exitDx=0;exitDy=0;" parent="1" source="9" target="2" edge="1"><mxGeometry width="160" relative="1" as="geometry"><mxPoint x="490" y="450" as="sourcePoint"/><mxPoint x="650" y="450" as="targetPoint"/></mxGeometry></mxCell><mxCell id="21" value="Extends" style="endArrow=block;endSize=16;endFill=0;html=1;rounded=0;" parent="1" source="12" target="2" edge="1"><mxGeometry width="160" relative="1" as="geometry"><mxPoint x="660" y="440" as="sourcePoint"/><mxPoint x="820" y="440" as="targetPoint"/></mxGeometry></mxCell></root></mxGraphModel></diagram></mxfile>